<mxfile host="app.diagrams.net" modified="2024-04-03T07:53:03.035Z" agent="Mozilla/5.0 (Windows NT 10.0; Win64; x64) AppleWebKit/537.36 (KHTML, like Gecko) Chrome/123.0.0.0 Safari/537.36" etag="lPfYBzLusgWHS14VZT7z" version="24.2.1" type="github">
  <diagram name="Page-1" id="YQLtTtxiaSaRVIVGIUAn">
    <mxGraphModel dx="1932" dy="585" grid="0" gridSize="10" guides="1" tooltips="1" connect="1" arrows="1" fold="1" page="1" pageScale="1" pageWidth="827" pageHeight="1169" math="0" shadow="0">
      <root>
        <mxCell id="0" />
        <mxCell id="1" parent="0" />
        <mxCell id="BDp3TN-3BzGNStI82ws3-12" value="" style="rounded=1;whiteSpace=wrap;html=1;" vertex="1" parent="1">
          <mxGeometry x="410" y="230" width="150" height="240" as="geometry" />
        </mxCell>
        <mxCell id="BDp3TN-3BzGNStI82ws3-1" value="Two Personas&lt;div&gt;Administrator: add coding porblems (Tiitle, descroption, etc), validate tsolution, tagging Linked List etc&lt;/div&gt;" style="text;html=1;align=center;verticalAlign=middle;whiteSpace=wrap;rounded=0;" vertex="1" parent="1">
          <mxGeometry x="-70" y="90" width="650" height="30" as="geometry" />
        </mxCell>
        <mxCell id="BDp3TN-3BzGNStI82ws3-2" value="Participants: browse site for Problem Statements based on categories, based on Metadata&lt;div&gt;&lt;br&gt;&lt;/div&gt;&lt;div&gt;Submit solution, Test case pass and failed&lt;/div&gt;" style="text;html=1;align=center;verticalAlign=middle;whiteSpace=wrap;rounded=0;" vertex="1" parent="1">
          <mxGeometry x="-10" y="170" width="340" height="30" as="geometry" />
        </mxCell>
        <mxCell id="BDp3TN-3BzGNStI82ws3-4" value="" style="shape=actor;whiteSpace=wrap;html=1;" vertex="1" parent="1">
          <mxGeometry x="130" y="270" width="40" height="40" as="geometry" />
        </mxCell>
        <mxCell id="BDp3TN-3BzGNStI82ws3-5" value="Admin" style="text;html=1;align=center;verticalAlign=middle;whiteSpace=wrap;rounded=0;" vertex="1" parent="1">
          <mxGeometry x="120" y="320" width="60" height="30" as="geometry" />
        </mxCell>
        <mxCell id="BDp3TN-3BzGNStI82ws3-6" value="" style="verticalLabelPosition=bottom;html=1;verticalAlign=top;align=center;strokeColor=none;fillColor=#00BEF2;shape=mxgraph.azure.user;" vertex="1" parent="1">
          <mxGeometry x="127" y="400" width="47.5" height="50" as="geometry" />
        </mxCell>
        <mxCell id="BDp3TN-3BzGNStI82ws3-7" value="Participants" style="text;html=1;align=center;verticalAlign=middle;whiteSpace=wrap;rounded=0;" vertex="1" parent="1">
          <mxGeometry x="115" y="450" width="60" height="30" as="geometry" />
        </mxCell>
        <mxCell id="BDp3TN-3BzGNStI82ws3-8" value="Load balancer" style="rounded=1;whiteSpace=wrap;html=1;" vertex="1" parent="1">
          <mxGeometry x="240" y="310" width="120" height="60" as="geometry" />
        </mxCell>
        <mxCell id="BDp3TN-3BzGNStI82ws3-9" value="API Gateway" style="rounded=1;whiteSpace=wrap;html=1;" vertex="1" parent="1">
          <mxGeometry x="425" y="280" width="120" height="60" as="geometry" />
        </mxCell>
        <mxCell id="BDp3TN-3BzGNStI82ws3-10" value="API Gateway" style="rounded=1;whiteSpace=wrap;html=1;" vertex="1" parent="1">
          <mxGeometry x="425" y="370" width="120" height="60" as="geometry" />
        </mxCell>
        <mxCell id="BDp3TN-3BzGNStI82ws3-11" value="Metadasta Server" style="rounded=1;whiteSpace=wrap;html=1;" vertex="1" parent="1">
          <mxGeometry x="590" y="310" width="120" height="60" as="geometry" />
        </mxCell>
        <mxCell id="BDp3TN-3BzGNStI82ws3-13" value="Admin Service" style="rounded=1;whiteSpace=wrap;html=1;" vertex="1" parent="1">
          <mxGeometry x="760" y="250" width="120" height="60" as="geometry" />
        </mxCell>
        <mxCell id="BDp3TN-3BzGNStI82ws3-14" value="Participant Service" style="rounded=1;whiteSpace=wrap;html=1;" vertex="1" parent="1">
          <mxGeometry x="770" y="380" width="120" height="60" as="geometry" />
        </mxCell>
        <mxCell id="BDp3TN-3BzGNStI82ws3-15" value="" style="endArrow=classic;html=1;rounded=0;entryX=0;entryY=0.5;entryDx=0;entryDy=0;" edge="1" parent="1" target="BDp3TN-3BzGNStI82ws3-12">
          <mxGeometry width="50" height="50" relative="1" as="geometry">
            <mxPoint x="360" y="350" as="sourcePoint" />
            <mxPoint x="410" y="300" as="targetPoint" />
          </mxGeometry>
        </mxCell>
        <mxCell id="BDp3TN-3BzGNStI82ws3-16" value="" style="endArrow=classic;html=1;rounded=0;entryX=0;entryY=0.5;entryDx=0;entryDy=0;" edge="1" parent="1" target="BDp3TN-3BzGNStI82ws3-11">
          <mxGeometry width="50" height="50" relative="1" as="geometry">
            <mxPoint x="560" y="340" as="sourcePoint" />
            <mxPoint x="610" y="290" as="targetPoint" />
          </mxGeometry>
        </mxCell>
        <mxCell id="BDp3TN-3BzGNStI82ws3-17" value="" style="endArrow=classic;html=1;rounded=0;" edge="1" parent="1">
          <mxGeometry width="50" height="50" relative="1" as="geometry">
            <mxPoint x="710" y="320" as="sourcePoint" />
            <mxPoint x="760" y="270" as="targetPoint" />
          </mxGeometry>
        </mxCell>
        <mxCell id="BDp3TN-3BzGNStI82ws3-18" value="" style="endArrow=classic;html=1;rounded=0;entryX=0;entryY=0.5;entryDx=0;entryDy=0;" edge="1" parent="1" target="BDp3TN-3BzGNStI82ws3-14">
          <mxGeometry width="50" height="50" relative="1" as="geometry">
            <mxPoint x="710" y="360" as="sourcePoint" />
            <mxPoint x="760" y="310" as="targetPoint" />
          </mxGeometry>
        </mxCell>
        <mxCell id="BDp3TN-3BzGNStI82ws3-19" value="No SQL" style="shape=cylinder3;whiteSpace=wrap;html=1;boundedLbl=1;backgroundOutline=1;size=15;" vertex="1" parent="1">
          <mxGeometry x="960" y="280" width="60" height="80" as="geometry" />
        </mxCell>
        <mxCell id="BDp3TN-3BzGNStI82ws3-21" value="Elastic Search" style="rounded=1;whiteSpace=wrap;html=1;" vertex="1" parent="1">
          <mxGeometry x="920" y="460" width="100" height="60" as="geometry" />
        </mxCell>
        <mxCell id="BDp3TN-3BzGNStI82ws3-23" value="" style="endArrow=classic;html=1;rounded=0;entryX=0.5;entryY=1;entryDx=0;entryDy=0;entryPerimeter=0;exitX=0.655;exitY=-0.02;exitDx=0;exitDy=0;exitPerimeter=0;" edge="1" parent="1" source="BDp3TN-3BzGNStI82ws3-21" target="BDp3TN-3BzGNStI82ws3-19">
          <mxGeometry width="50" height="50" relative="1" as="geometry">
            <mxPoint x="960" y="480" as="sourcePoint" />
            <mxPoint x="1010" y="430" as="targetPoint" />
          </mxGeometry>
        </mxCell>
        <mxCell id="BDp3TN-3BzGNStI82ws3-24" value="CodeService" style="rounded=1;whiteSpace=wrap;html=1;" vertex="1" parent="1">
          <mxGeometry x="730" y="490" width="120" height="60" as="geometry" />
        </mxCell>
        <mxCell id="BDp3TN-3BzGNStI82ws3-25" value="" style="endArrow=classic;html=1;rounded=0;exitX=0.702;exitY=1.033;exitDx=0;exitDy=0;exitPerimeter=0;" edge="1" parent="1" source="BDp3TN-3BzGNStI82ws3-11">
          <mxGeometry width="50" height="50" relative="1" as="geometry">
            <mxPoint x="800" y="440" as="sourcePoint" />
            <mxPoint x="800" y="490" as="targetPoint" />
          </mxGeometry>
        </mxCell>
        <mxCell id="BDp3TN-3BzGNStI82ws3-26" value="" style="endArrow=classic;html=1;rounded=0;" edge="1" parent="1" source="BDp3TN-3BzGNStI82ws3-24" target="BDp3TN-3BzGNStI82ws3-19">
          <mxGeometry width="50" height="50" relative="1" as="geometry">
            <mxPoint x="840" y="620" as="sourcePoint" />
            <mxPoint x="1260" y="650" as="targetPoint" />
            <Array as="points">
              <mxPoint x="900" y="470" />
            </Array>
          </mxGeometry>
        </mxCell>
        <mxCell id="BDp3TN-3BzGNStI82ws3-27" value="" style="endArrow=classic;html=1;rounded=0;" edge="1" parent="1">
          <mxGeometry width="50" height="50" relative="1" as="geometry">
            <mxPoint x="180" y="300" as="sourcePoint" />
            <mxPoint x="230" y="330" as="targetPoint" />
          </mxGeometry>
        </mxCell>
        <mxCell id="BDp3TN-3BzGNStI82ws3-28" value="" style="endArrow=classic;html=1;rounded=0;" edge="1" parent="1">
          <mxGeometry width="50" height="50" relative="1" as="geometry">
            <mxPoint x="170" y="410" as="sourcePoint" />
            <mxPoint x="230" y="360" as="targetPoint" />
          </mxGeometry>
        </mxCell>
        <mxCell id="BDp3TN-3BzGNStI82ws3-29" value="CDN" style="rounded=0;whiteSpace=wrap;html=1;" vertex="1" parent="1">
          <mxGeometry x="425" y="140" width="120" height="60" as="geometry" />
        </mxCell>
        <mxCell id="BDp3TN-3BzGNStI82ws3-30" value="Blockserver" style="rounded=1;whiteSpace=wrap;html=1;" vertex="1" parent="1">
          <mxGeometry x="650" y="140" width="120" height="60" as="geometry" />
        </mxCell>
        <mxCell id="BDp3TN-3BzGNStI82ws3-31" value="" style="endArrow=none;html=1;rounded=0;" edge="1" parent="1">
          <mxGeometry width="50" height="50" relative="1" as="geometry">
            <mxPoint x="180" y="280" as="sourcePoint" />
            <mxPoint x="420" y="170" as="targetPoint" />
          </mxGeometry>
        </mxCell>
        <mxCell id="BDp3TN-3BzGNStI82ws3-32" value="" style="endArrow=classic;html=1;rounded=0;entryX=0;entryY=0.5;entryDx=0;entryDy=0;" edge="1" parent="1" target="BDp3TN-3BzGNStI82ws3-30">
          <mxGeometry width="50" height="50" relative="1" as="geometry">
            <mxPoint x="550" y="170" as="sourcePoint" />
            <mxPoint x="600" y="120" as="targetPoint" />
          </mxGeometry>
        </mxCell>
        <mxCell id="BDp3TN-3BzGNStI82ws3-34" value="" style="endArrow=none;html=1;rounded=0;" edge="1" parent="1">
          <mxGeometry width="50" height="50" relative="1" as="geometry">
            <mxPoint x="160" y="400" as="sourcePoint" />
            <mxPoint x="420" y="200" as="targetPoint" />
          </mxGeometry>
        </mxCell>
        <mxCell id="BDp3TN-3BzGNStI82ws3-35" value="/register-admin/&lt;div&gt;user-name&lt;/div&gt;&lt;div&gt;password/&lt;/div&gt;&lt;div&gt;/sign-up (using 3rd Parties)&lt;/div&gt;&lt;div&gt;/add-problem&amp;nbsp;&lt;br&gt;image, cagtegory, description&lt;/div&gt;&lt;div&gt;&lt;br&gt;&lt;/div&gt;" style="rounded=0;whiteSpace=wrap;html=1;" vertex="1" parent="1">
          <mxGeometry y="490" width="280" height="110" as="geometry" />
        </mxCell>
        <mxCell id="BDp3TN-3BzGNStI82ws3-36" value="register-participant&lt;div&gt;user-name&lt;/div&gt;&lt;div&gt;password&lt;/div&gt;" style="rounded=0;whiteSpace=wrap;html=1;" vertex="1" parent="1">
          <mxGeometry x="294" y="525" width="120" height="60" as="geometry" />
        </mxCell>
        <mxCell id="BDp3TN-3BzGNStI82ws3-38" value="ProblermService" style="rounded=1;whiteSpace=wrap;html=1;" vertex="1" parent="1">
          <mxGeometry x="550" y="510" width="120" height="60" as="geometry" />
        </mxCell>
        <mxCell id="BDp3TN-3BzGNStI82ws3-39" value="" style="endArrow=classic;html=1;rounded=0;exitX=0.25;exitY=1;exitDx=0;exitDy=0;entryX=0.609;entryY=0.036;entryDx=0;entryDy=0;entryPerimeter=0;" edge="1" parent="1" source="BDp3TN-3BzGNStI82ws3-11" target="BDp3TN-3BzGNStI82ws3-38">
          <mxGeometry width="50" height="50" relative="1" as="geometry">
            <mxPoint x="610" y="500" as="sourcePoint" />
            <mxPoint x="660" y="450" as="targetPoint" />
          </mxGeometry>
        </mxCell>
        <mxCell id="BDp3TN-3BzGNStI82ws3-40" value="" style="endArrow=classic;html=1;rounded=0;entryX=0.426;entryY=0.983;entryDx=0;entryDy=0;entryPerimeter=0;" edge="1" parent="1" target="BDp3TN-3BzGNStI82ws3-21">
          <mxGeometry width="50" height="50" relative="1" as="geometry">
            <mxPoint x="670" y="550" as="sourcePoint" />
            <mxPoint x="930" y="641.27998046875" as="targetPoint" />
            <Array as="points">
              <mxPoint x="940" y="590" />
            </Array>
          </mxGeometry>
        </mxCell>
        <mxCell id="BDp3TN-3BzGNStI82ws3-41" value="" style="endArrow=classic;html=1;rounded=0;entryX=1;entryY=1;entryDx=0;entryDy=-15;entryPerimeter=0;" edge="1" parent="1" target="BDp3TN-3BzGNStI82ws3-19">
          <mxGeometry width="50" height="50" relative="1" as="geometry">
            <mxPoint x="670" y="570" as="sourcePoint" />
            <mxPoint x="1250" y="570" as="targetPoint" />
            <Array as="points">
              <mxPoint x="970" y="620" />
              <mxPoint x="1050" y="500" />
            </Array>
          </mxGeometry>
        </mxCell>
        <mxCell id="BDp3TN-3BzGNStI82ws3-42" value="Admin Details&lt;br&gt;RDBMS" style="shape=cylinder3;whiteSpace=wrap;html=1;boundedLbl=1;backgroundOutline=1;size=15;" vertex="1" parent="1">
          <mxGeometry x="916" y="145" width="60" height="80" as="geometry" />
        </mxCell>
        <mxCell id="BDp3TN-3BzGNStI82ws3-43" value="" style="endArrow=classic;html=1;rounded=0;" edge="1" parent="1">
          <mxGeometry width="50" height="50" relative="1" as="geometry">
            <mxPoint x="860" y="249" as="sourcePoint" />
            <mxPoint x="910" y="199" as="targetPoint" />
          </mxGeometry>
        </mxCell>
        <mxCell id="BDp3TN-3BzGNStI82ws3-44" value="Participant details&lt;br&gt;RDBMS" style="shape=cylinder3;whiteSpace=wrap;html=1;boundedLbl=1;backgroundOutline=1;size=15;" vertex="1" parent="1">
          <mxGeometry x="894" y="236" width="60" height="80" as="geometry" />
        </mxCell>
        <mxCell id="BDp3TN-3BzGNStI82ws3-45" value="" style="endArrow=classic;html=1;rounded=0;" edge="1" parent="1">
          <mxGeometry width="50" height="50" relative="1" as="geometry">
            <mxPoint x="861" y="375" as="sourcePoint" />
            <mxPoint x="911" y="325" as="targetPoint" />
          </mxGeometry>
        </mxCell>
      </root>
    </mxGraphModel>
  </diagram>
</mxfile>
